<svg width="30" height="36" viewBox="0 0 30 36" fill="none" xmlns="http://www.w3.org/2000/svg">
<path d="M27.2532 7.63057C22.4474 7.63057 19.3783 7.39507 17.9434 7.21585C17.7097 7.18665 17.6602 6.88968 17.8667 6.77644L26.3935 2.10184C26.6214 1.97693 26.5327 1.63057 26.2728 1.63057H17.2532" stroke="#EEEEEE" stroke-width="1.39887" stroke-linecap="round"/>
<path d="M11.2531 12.5396C6.44729 12.5396 3.37819 12.3041 1.94329 12.1249C1.70955 12.0957 1.66005 11.7987 1.8666 11.6855L10.3934 7.01087C10.6213 6.88595 10.5326 6.53959 10.2727 6.53959H1.25305" stroke="#EEEEEE" stroke-width="1.39887" stroke-linecap="round"/>
<path d="M28.344 35.2669C23.5382 35.2669 20.4691 35.0314 19.0342 34.8522C18.8005 34.823 18.751 34.526 18.9575 34.4128L27.4844 29.7382C27.7122 29.6133 27.6235 29.2669 27.3636 29.2669H18.344" stroke="#EEEEEE" stroke-width="1.39887" stroke-linecap="round"/>
</svg>
