<svg width="300" height="257" viewBox="0 0 300 257" fill="none" xmlns="http://www.w3.org/2000/svg">
<path d="M79.1691 143.637L128.406 141.256C128.406 141.256 171.718 123.889 191.879 158.695C212.039 193.502 154.4 237.181 154.4 237.181L134.133 232.884L145.77 189.236C145.77 189.236 96.0271 201.573 79.1691 143.637Z" fill="#00ADB5"/>
<path d="M79.1691 143.637L79.1353 142.939C78.9214 142.949 78.724 143.057 78.5997 143.231C78.4753 143.405 78.4377 143.627 78.4975 143.833L79.1691 143.637ZM128.406 141.256L128.44 141.955L128.558 141.949L128.667 141.905L128.406 141.256ZM154.4 237.181L154.255 237.865L154.567 237.932L154.822 237.739L154.4 237.181ZM134.133 232.884L133.457 232.704L133.267 233.416L133.988 233.568L134.133 232.884ZM145.77 189.236L146.446 189.417L146.751 188.272L145.602 188.557L145.77 189.236ZM79.2028 144.336L128.44 141.955L128.373 140.557L79.1353 142.939L79.2028 144.336ZM154.545 236.497L134.278 232.2L133.988 233.568L154.255 237.865L154.545 236.497ZM134.809 233.064L146.446 189.417L145.094 189.056L133.457 232.704L134.809 233.064ZM145.77 189.236C145.602 188.557 145.602 188.557 145.602 188.557C145.602 188.557 145.601 188.558 145.601 188.558C145.6 188.558 145.598 188.558 145.596 188.559C145.591 188.56 145.583 188.562 145.572 188.565C145.55 188.57 145.516 188.578 145.471 188.588C145.381 188.609 145.245 188.639 145.066 188.676C144.707 188.75 144.174 188.852 143.489 188.963C142.117 189.183 140.134 189.436 137.699 189.56C132.827 189.809 126.162 189.543 118.984 187.49C104.671 183.398 88.2023 172.178 79.8406 143.442L78.4975 143.833C86.9939 173.032 103.826 184.612 118.599 188.835C125.963 190.941 132.788 191.211 137.77 190.957C140.262 190.83 142.296 190.571 143.711 190.344C144.418 190.23 144.971 190.124 145.349 190.046C145.538 190.007 145.683 189.974 145.782 189.952C145.832 189.941 145.87 189.932 145.896 189.925C145.909 189.922 145.919 189.92 145.926 189.918C145.93 189.917 145.933 189.917 145.935 189.916C145.936 189.916 145.937 189.916 145.937 189.916C145.938 189.915 145.938 189.915 145.77 189.236ZM128.406 141.256C128.667 141.905 128.667 141.905 128.667 141.905C128.667 141.905 128.667 141.905 128.668 141.905C128.669 141.904 128.67 141.904 128.672 141.903C128.677 141.901 128.684 141.898 128.694 141.894C128.713 141.887 128.743 141.875 128.783 141.86C128.862 141.829 128.982 141.784 129.14 141.726C129.455 141.609 129.923 141.442 130.527 141.241C131.736 140.839 133.489 140.302 135.657 139.765C139.995 138.69 145.981 137.618 152.582 137.623C165.774 137.632 181.359 141.928 191.274 159.046L192.484 158.345C182.238 140.656 166.087 136.233 152.583 136.224C145.836 136.219 139.733 137.314 135.321 138.407C133.113 138.954 131.325 139.502 130.086 139.914C129.467 140.12 128.985 140.292 128.656 140.413C128.492 140.474 128.365 140.521 128.28 140.554C128.237 140.571 128.204 140.584 128.182 140.593C128.171 140.597 128.162 140.6 128.156 140.603C128.153 140.604 128.151 140.605 128.149 140.605C128.148 140.606 128.148 140.606 128.147 140.606C128.146 140.607 128.146 140.607 128.406 141.256ZM191.274 159.046C196.197 167.546 196.385 176.597 193.855 185.451C191.321 194.32 186.065 202.961 180.148 210.561C174.235 218.155 167.69 224.673 162.62 229.295C160.085 231.606 157.922 233.44 156.393 234.696C155.629 235.324 155.023 235.807 154.609 236.132C154.403 236.295 154.244 236.419 154.137 236.501C154.084 236.542 154.043 236.573 154.016 236.594C154.003 236.604 153.993 236.612 153.987 236.617C153.983 236.619 153.981 236.621 153.979 236.622C153.978 236.623 153.978 236.623 153.978 236.623C153.977 236.624 153.977 236.624 154.4 237.181C154.822 237.739 154.822 237.738 154.823 237.738C154.824 237.737 154.824 237.737 154.825 237.736C154.827 237.735 154.83 237.732 154.834 237.73C154.841 237.724 154.852 237.716 154.866 237.705C154.895 237.683 154.937 237.651 154.992 237.608C155.102 237.523 155.264 237.397 155.475 237.232C155.895 236.9 156.509 236.411 157.281 235.777C158.826 234.508 161.008 232.658 163.562 230.329C168.669 225.674 175.274 219.097 181.251 211.42C187.224 203.749 192.597 194.945 195.201 185.835C197.808 176.709 197.641 167.248 192.484 158.345L191.274 159.046Z" fill="black"/>
<path d="M155.328 236.495L135.079 230.074L127.274 247.286C127.274 247.286 144.611 253.27 156.259 253.7L150.585 247.315L155.328 236.495Z" fill="#EEEEEE" stroke="black" stroke-width="1.39887" stroke-linejoin="round"/>
<path d="M77.1687 145.349L142.149 144.8C142.149 144.8 187.849 154.239 185.436 194.39C183.023 234.541 110.849 239.127 110.849 239.127L96.3251 224.353L132.183 190.009C132.183 190.009 83.3037 201.065 77.1687 145.349Z" fill="#00ADB5" stroke="black" stroke-width="1.39887"/>
<path d="M112.002 239.069L98.6659 222.533L82.6541 232.573C82.6541 232.573 93.8034 247.136 103.277 253.926L102.073 245.47L112.002 239.069Z" fill="#EEEEEE" stroke="black" stroke-width="1.39887" stroke-linejoin="round"/>
<path fill-rule="evenodd" clip-rule="evenodd" d="M83.2508 78.0645C84.1846 76.7675 84.9171 75.3018 85.3713 73.6491C88.8002 61.173 78.1912 53.0768 69.5566 50.9763C60.9221 48.8758 32.2428 71.5468 63.632 87.1301C63.7167 87.1255 63.8027 87.1203 63.89 87.1145C68.9196 91.0945 70.5285 96.3468 72.459 102.649C73.2465 105.219 74.0874 107.964 75.2357 110.869L89.589 99.5331C89.9087 91.0834 87.6231 84.3384 83.2508 78.0645Z" fill="#F5B9AB"/>
<path d="M85.3713 73.6491L86.0457 73.8345L86.0457 73.8345L85.3713 73.6491ZM83.2508 78.0645L82.6831 77.6558C82.5097 77.8967 82.5072 78.2209 82.6769 78.4644L83.2508 78.0645ZM69.5566 50.9763L69.3913 51.6559L69.3913 51.6559L69.5566 50.9763ZM63.632 87.1301L63.321 87.7566C63.4292 87.8103 63.5496 87.8351 63.6703 87.8285L63.632 87.1301ZM63.89 87.1145L64.324 86.566C64.1881 86.4585 64.017 86.4052 63.844 86.4166L63.89 87.1145ZM72.459 102.649L73.1278 102.444L73.1278 102.444L72.459 102.649ZM75.2357 110.869L74.5853 111.126C74.6666 111.332 74.8404 111.487 75.054 111.544C75.2675 111.602 75.4957 111.555 75.6692 111.418L75.2357 110.869ZM89.589 99.5331L90.0225 100.082C90.1832 99.9551 90.2802 99.7641 90.288 99.5595L89.589 99.5331ZM84.6969 73.4638C84.2661 75.0312 83.5715 76.422 82.6831 77.6558L83.8184 78.4732C84.7977 77.113 85.5681 75.5723 86.0457 73.8345L84.6969 73.4638ZM69.3913 51.6559C73.5907 52.6775 78.2646 55.16 81.4571 58.8775C84.6285 62.5705 86.342 67.478 84.6969 73.4638L86.0457 73.8345C87.8295 67.3441 85.9529 61.9655 82.5184 57.9662C79.105 53.9914 74.1571 51.3756 69.722 50.2967L69.3913 51.6559ZM63.943 86.5036C56.1816 82.6504 52.2617 78.4215 50.7568 74.3681C49.2587 70.3329 50.1006 66.3252 52.1883 62.7764C54.2814 59.2182 57.6032 56.1714 60.9373 54.1455C62.6018 53.1341 64.2514 52.3883 65.7304 51.9593C67.2225 51.5266 68.4795 51.4341 69.3913 51.6559L69.722 50.2967C68.4752 49.9934 66.9471 50.1499 65.3407 50.6158C63.7212 51.0855 61.9588 51.888 60.2109 52.9501C56.7201 55.0712 53.2149 58.2723 50.9825 62.0672C48.7446 65.8714 47.7626 70.3221 49.4454 74.8549C51.1216 79.3695 55.3878 83.8181 63.321 87.7566L63.943 86.5036ZM63.844 86.4166C63.7593 86.4222 63.6758 86.4272 63.5936 86.4317L63.6703 87.8285C63.7576 87.8237 63.8462 87.8184 63.936 87.8124L63.844 86.4166ZM73.1278 102.444C71.2063 96.1713 69.5494 90.7009 64.324 86.566L63.456 87.663C68.2898 91.488 69.8508 96.5223 71.7903 102.854L73.1278 102.444ZM75.8862 110.612C74.7494 107.737 73.9159 105.017 73.1278 102.444L71.7903 102.854C72.577 105.422 73.4253 108.192 74.5853 111.126L75.8862 110.612ZM89.1555 98.9842L74.8022 110.32L75.6692 111.418L90.0225 100.082L89.1555 98.9842ZM82.6769 78.4644C86.9688 84.6228 89.2036 91.2197 88.8901 99.5067L90.288 99.5595C90.6138 90.947 88.2774 84.054 83.8246 77.6646L82.6769 78.4644Z" fill="black"/>
<path d="M50.5611 73.7196C50.4326 78.6091 58.4896 84.9936 61.745 85.7475C40.3347 87.6877 36.9487 61.5343 44.1581 61.8232C40.0489 54.096 46.5804 45.945 56.3455 48.2053C62.7121 27.217 76.6531 46.1318 73.6793 52.4706C70.7054 58.8093 62.7506 60.1043 60.6493 63.7588C58.5481 67.4134 62.8825 77.9535 58.3867 73.5241C53.891 69.0947 50.7216 67.6078 50.5611 73.7196Z" fill="#00ADB5" stroke="black" stroke-width="1.39887"/>
<path d="M143.705 142.587C152.941 121.306 123.277 99.5955 116.733 95.1366C115.892 94.5636 115.038 94.0599 114.149 93.5659C97.1203 84.1085 73.1565 82.8706 64.4332 100.287C49.1851 130.729 87.2 162.511 101.241 182.755L143.705 142.587Z" fill="#EEEEEE"/>
<path d="M116.733 95.1366L116.339 95.7146L116.339 95.7146L116.733 95.1366ZM143.705 142.587L144.185 143.095L144.289 142.997L144.346 142.866L143.705 142.587ZM101.241 182.755L100.666 183.153C100.782 183.321 100.966 183.429 101.169 183.45C101.371 183.471 101.573 183.403 101.721 183.263L101.241 182.755ZM64.4332 100.287L65.0585 100.6L65.0585 100.6L64.4332 100.287ZM114.149 93.5659L113.809 94.1773L113.809 94.1773L114.149 93.5659ZM116.339 95.7146C119.593 97.9316 128.579 104.429 135.595 112.997C142.636 121.595 147.516 132.049 143.063 142.309L144.346 142.866C149.13 131.844 143.796 120.803 136.678 112.11C129.534 103.388 120.417 96.8005 117.127 94.5586L116.339 95.7146ZM143.224 142.079L100.76 182.247L101.721 183.263L144.185 143.095L143.224 142.079ZM101.815 182.356C98.2814 177.261 93.2426 171.444 87.9571 165.159C82.6579 158.859 77.0902 152.064 72.4388 144.962C63.1189 130.731 57.6105 115.47 65.0585 100.6L63.8078 99.9733C56.0077 115.546 61.8827 131.397 71.2685 145.728C75.9699 152.907 81.5855 159.757 86.8866 166.06C92.2014 172.379 97.1797 178.127 100.666 183.153L101.815 182.356ZM113.809 94.1773C114.689 94.6659 115.523 95.1581 116.339 95.7146L117.127 94.5586C116.262 93.9691 115.388 93.4539 114.488 92.9544L113.809 94.1773ZM114.488 92.9544C105.877 88.1716 95.4936 85.454 86.1247 86.1512C76.7385 86.8497 68.3076 90.9895 63.8078 99.9733L65.0585 100.6C69.2821 92.1676 77.1947 88.2185 86.2285 87.5462C95.2794 86.8727 105.393 89.5028 113.809 94.1773L114.488 92.9544Z" fill="black"/>
<path d="M155.157 131.577L140.428 114.237L119.022 130.91C115.629 106.474 88.4434 86.7726 77.9244 89.5004C49.6458 96.8343 81.7073 160.302 102.162 169.486C122.616 178.67 155.157 131.577 155.157 131.577Z" fill="#EEEEEE" stroke="black" stroke-width="1.39887"/>
<path d="M141.705 112.834L139.836 114.699L154.802 132.086L157.857 129.047C162.981 123.951 162.155 115.44 156.148 111.423C151.613 108.39 145.568 108.981 141.705 112.834Z" fill="#F5B9AB" stroke="black" stroke-width="1.39887" stroke-linejoin="round"/>
<path fill-rule="evenodd" clip-rule="evenodd" d="M67.187 180.931C66.8555 180.853 66.5233 181.095 66.5239 181.436L66.6386 247.266H53.566C53.2887 247.266 53.0638 247.491 53.0638 247.768L53.0638 255.528C53.0638 255.806 53.2887 256.03 53.566 256.03H90.8739C91.1513 256.03 91.3761 255.806 91.3761 255.528V247.768C91.3761 247.491 91.1513 247.266 90.8739 247.266H76.6642V181.056C76.6642 180.757 76.4034 180.525 76.1062 180.559C75.4438 180.636 74.8187 180.714 74.2252 180.789C71.3694 181.149 69.2432 181.417 67.187 180.931Z" fill="#00ADB5"/>
<path d="M66.5239 181.436L65.8245 181.437L65.8245 181.437L66.5239 181.436ZM67.187 180.931L67.3479 180.25L67.3479 180.25L67.187 180.931ZM66.6386 247.266V247.966H67.3393L67.3381 247.265L66.6386 247.266ZM53.0638 247.768L53.7633 247.768L53.0638 247.768ZM53.0638 255.528L52.3644 255.528L53.0638 255.528ZM76.6642 247.266H75.9648V247.966H76.6642V247.266ZM76.1062 180.559L76.1867 181.254L76.1867 181.254L76.1062 180.559ZM74.2252 180.789L74.1378 180.095L74.1378 180.095L74.2252 180.789ZM67.2234 181.435C67.2235 181.504 67.187 181.558 67.151 181.585C67.1175 181.611 67.0722 181.622 67.0262 181.612L67.3479 180.25C66.6152 180.077 65.8231 180.606 65.8245 181.437L67.2234 181.435ZM67.3381 247.265L67.2234 181.435L65.8245 181.437L65.9392 247.267L67.3381 247.265ZM53.566 247.966H66.6386V246.567H53.566V247.966ZM53.7633 247.768C53.7633 247.877 53.675 247.966 53.566 247.966V246.567C52.9024 246.567 52.3644 247.105 52.3644 247.768L53.7633 247.768ZM53.7633 255.528L53.7633 247.768L52.3644 247.768L52.3644 255.528L53.7633 255.528ZM53.566 255.331C53.675 255.331 53.7633 255.419 53.7633 255.528L52.3644 255.528C52.3644 256.192 52.9024 256.73 53.566 256.73V255.331ZM90.8739 255.331H53.566V256.73H90.8739V255.331ZM90.6767 255.528C90.6767 255.419 90.765 255.331 90.8739 255.331V256.73C91.5376 256.73 92.0756 256.192 92.0756 255.528H90.6767ZM90.6767 247.768V255.528H92.0756V247.768H90.6767ZM90.8739 247.966C90.765 247.966 90.6767 247.877 90.6767 247.768H92.0756C92.0756 247.105 91.5376 246.567 90.8739 246.567V247.966ZM76.6642 247.966H90.8739V246.567H76.6642V247.966ZM75.9648 181.056V247.266H77.3637V181.056H75.9648ZM76.1867 181.254C76.0678 181.268 75.9648 181.175 75.9648 181.056H77.3637C77.3637 180.34 76.7389 179.782 76.0258 179.864L76.1867 181.254ZM74.3126 181.483C74.9065 181.408 75.5282 181.33 76.1867 181.254L76.0258 179.864C75.3593 179.941 74.731 180.021 74.1378 180.095L74.3126 181.483ZM67.0262 181.612C69.2293 182.132 71.4909 181.839 74.3126 181.483L74.1378 180.095C71.2478 180.459 69.257 180.701 67.3479 180.25L67.0262 181.612Z" fill="black"/>
<path d="M51.4005 115.082C60.0412 135.678 43.8126 143.224 44.0018 156.915C44.2635 175.862 75.1634 194.144 94.5013 154.556" stroke="black" stroke-width="1.39887"/>
<rect x="16.6306" y="75.3487" width="23.5383" height="76.1238" rx="11.7691" transform="rotate(-22.7603 16.6306 75.3487)" fill="#00ADB5" stroke="black" stroke-width="1.39887"/>
<rect x="229.384" y="153.112" width="11.2683" height="102.917" rx="0.502194" fill="#00ADB5" stroke="black" stroke-width="1.39887"/>
<rect x="145.148" y="152.645" width="37.7305" height="81.4717" rx="18.8652" transform="rotate(88.7489 145.148 152.645)" fill="#00ADB5" stroke="black" stroke-width="1.39887"/>
<rect x="298.736" y="133.375" width="23.5383" height="128.036" rx="11.7691" transform="rotate(88.7489 298.736 133.375)" fill="#00ADB5" stroke="black" stroke-width="1.39887"/>
<rect x="280.241" y="71.7193" width="60.0977" height="11.2683" rx="2.00878" transform="rotate(105 280.241 71.7193)" fill="#00ADB5" stroke="black" stroke-width="1.39887"/>
<rect x="206.977" y="123.892" width="60.0977" height="11.2683" rx="2.00878" fill="#EEEEEE" stroke="black" stroke-width="1.39887"/>
</svg>
