<svg width="211" height="248" viewBox="0 0 211 248" fill="none" xmlns="http://www.w3.org/2000/svg">
<path fill-rule="evenodd" clip-rule="evenodd" d="M152.674 50.0001C151.395 49.5334 150.177 48.8513 149.065 47.9042C140.673 40.7548 144.272 29.9684 149.35 24.3527C154.429 18.7371 185.497 20.9771 170.841 46.992C170.779 47.0292 170.716 47.0667 170.652 47.1043C169.014 52.3182 170.395 56.7903 172.053 62.1561C172.73 64.3446 173.452 66.6818 174.034 69.2786L158.49 68.1649C154.218 62.3634 152.598 56.5155 152.674 50.0001Z" fill="#F5B9AB"/>
<path d="M149.065 47.9042L148.611 48.4366L148.611 48.4366L149.065 47.9042ZM152.674 50.0001L152.914 49.343C153.193 49.4447 153.377 49.7114 153.374 50.0083L152.674 50.0001ZM149.35 24.3527L149.869 24.8219L149.35 24.3527ZM170.841 46.992L171.45 47.3353C171.391 47.4407 171.305 47.5288 171.202 47.5912L170.841 46.992ZM170.652 47.1043L169.985 46.8946C170.037 46.7293 170.148 46.5891 170.298 46.5013L170.652 47.1043ZM172.053 62.1561L171.385 62.3626L171.385 62.3626L172.053 62.1561ZM174.034 69.2786L174.716 69.1257C174.765 69.3415 174.708 69.5675 174.564 69.735C174.419 69.9026 174.204 69.9921 173.984 69.9763L174.034 69.2786ZM158.49 68.1649L158.44 68.8625C158.236 68.8479 158.048 68.7445 157.927 68.5796L158.49 68.1649ZM149.519 47.3718C150.563 48.2616 151.708 48.903 152.914 49.343L152.434 50.6571C151.082 50.1638 149.79 49.441 148.611 48.4366L149.519 47.3718ZM149.869 24.8219C147.411 27.5397 145.318 31.5081 144.851 35.6319C144.388 39.7235 145.522 43.9668 149.519 47.3718L148.611 48.4366C144.216 44.6922 142.953 39.9676 143.461 35.4747C143.966 31.014 146.211 26.7814 148.831 23.8836L149.869 24.8219ZM170.231 46.6487C173.848 40.2285 174.573 35.3989 173.701 31.8571C172.833 28.3342 170.348 25.9346 167.197 24.4431C164.036 22.9469 160.253 22.3927 156.947 22.5612C155.297 22.6453 153.787 22.9086 152.549 23.3113C151.299 23.7182 150.388 24.2478 149.869 24.8219L148.831 23.8836C149.582 23.0538 150.753 22.4249 152.116 21.9811C153.493 21.5331 155.128 21.2532 156.876 21.1642C160.365 20.9863 164.386 21.5651 167.795 23.1787C171.214 24.7971 174.065 27.4843 175.059 31.5226C176.049 35.5421 175.161 40.7481 171.45 47.3353L170.231 46.6487ZM170.298 46.5013C170.36 46.4649 170.42 46.4287 170.48 46.3929L171.202 47.5912C171.138 47.6297 171.073 47.6685 171.006 47.7074L170.298 46.5013ZM171.385 62.3626C169.736 57.0261 168.271 52.3467 169.985 46.8946L171.319 47.314C169.756 52.2897 171.055 56.5545 172.722 61.9496L171.385 62.3626ZM173.351 69.4316C172.776 66.8655 172.062 64.5534 171.385 62.3626L172.722 61.9496C173.397 64.1358 174.127 66.4981 174.716 69.1257L173.351 69.4316ZM158.54 67.4672L174.084 68.581L173.984 69.9763L158.44 68.8625L158.54 67.4672ZM153.374 50.0083C153.299 56.3829 154.877 62.0799 159.053 67.7501L157.927 68.5796C153.558 62.647 151.897 56.6482 151.975 49.9919L153.374 50.0083Z" fill="black"/>
<path d="M173.629 31.282C176.062 34.666 173.442 43.0239 171.509 45.1143C187.526 36.2272 177.386 16.1757 172.444 19.8322C171.638 12.4189 163.132 9.80332 157.333 16.073C142.794 4.33222 142.03 24.3382 147.161 27.3806C152.293 30.4231 158.519 27.5257 161.75 29.0946C164.981 30.6635 166.974 40.1669 168.021 34.8923C169.068 29.6178 170.589 27.052 173.629 31.282Z" fill="#00ADB5" stroke="black" stroke-width="1.39887"/>
<path d="M188.004 178.901L165.459 177.265L170.885 116.579C170.885 116.579 144.727 54.5926 167.181 54.5924C198.909 54.5924 209.518 103.474 209.122 116.579C208.727 129.684 188.004 178.901 188.004 178.901Z" fill="#EEEEEE" stroke="black" stroke-width="1.39887"/>
<path d="M165.289 179.89L165.604 177.15L188.308 178.062L187.807 182.465C186.998 189.585 179.867 194.176 173.051 191.965C167.919 190.301 164.672 185.25 165.289 179.89Z" fill="#F5B9AB" stroke="black" stroke-width="1.39887" stroke-linejoin="round"/>
<path d="M132.563 135.23C117.898 121.01 136.123 73.9104 139.095 68.3051C143.423 60.3172 156.413 46.4213 173.749 54.7401C199.965 67.3197 187.985 129.563 183.273 151.138L132.563 135.23Z" fill="#EEEEEE" stroke="black" stroke-width="1.39887"/>
<path d="M18.3634 184.593L16.0001 163.229C16.0001 163.229 70.8697 145.447 116.091 138.775L178.182 144.138C187.508 166.178 182.909 206.684 113.733 188.062L18.3634 184.593Z" fill="#00ADB5" stroke="black" stroke-width="1.39887"/>
<path fill-rule="evenodd" clip-rule="evenodd" d="M84.8518 147.164L75.1028 177.485L54.6483 176.486L46.6512 128.018C44.4054 114.406 54.9064 102.031 68.702 102.031C70.145 102.031 71.5483 102.165 72.9022 102.419L74.0252 100.664L160.433 128.46C180.297 134.849 189.231 157.912 178.856 176.016C168.657 193.814 144.811 197.996 129.163 184.73L84.8518 147.164Z" fill="#00ADB5"/>
<path d="M84.8518 147.164L85.3041 146.63L84.5062 145.954L84.186 146.95L84.8518 147.164ZM75.1028 177.485L75.0687 178.183L75.6045 178.21L75.7686 177.699L75.1028 177.485ZM54.6483 176.486L53.9582 176.599L54.0501 177.157L54.6141 177.184L54.6483 176.486ZM46.6512 128.018L45.9611 128.132L46.6512 128.018ZM68.702 102.031L68.702 102.73H68.702V102.031ZM72.9022 102.419L72.7729 103.107L73.2369 103.194L73.4913 102.796L72.9022 102.419ZM74.0252 100.664L74.2394 99.9984L73.7264 99.8334L73.436 100.287L74.0252 100.664ZM160.433 128.46L160.219 129.125L160.219 129.125L160.433 128.46ZM178.856 176.016L179.463 176.363L179.463 176.363L178.856 176.016ZM129.163 184.73L129.616 184.197L129.616 184.197L129.163 184.73ZM84.186 146.95L74.4369 177.271L75.7686 177.699L85.5177 147.378L84.186 146.95ZM75.1369 176.786L54.6824 175.787L54.6141 177.184L75.0687 178.183L75.1369 176.786ZM55.3384 176.372L47.3413 127.904L45.9611 128.132L53.9582 176.599L55.3384 176.372ZM47.3413 127.904C45.1658 114.719 55.3382 102.73 68.702 102.73L68.702 101.331C54.4747 101.331 43.645 114.094 45.9611 128.132L47.3413 127.904ZM68.702 102.73C70.1017 102.73 71.4616 102.86 72.7729 103.107L73.0315 101.732C71.635 101.469 70.1884 101.331 68.702 101.331V102.73ZM73.4913 102.796L74.6143 101.041L73.436 100.287L72.313 102.042L73.4913 102.796ZM73.811 101.33L160.219 129.125L160.647 127.794L74.2394 99.9984L73.811 101.33ZM160.219 129.125C179.66 135.379 188.403 157.95 178.25 175.668L179.463 176.363C190.059 157.873 180.935 134.32 160.647 127.794L160.219 129.125ZM178.25 175.668C168.267 193.087 144.929 197.18 129.616 184.197L128.711 185.264C144.692 198.812 169.046 194.541 179.463 176.363L178.25 175.668ZM129.616 184.197L85.3041 146.63L84.3995 147.697L128.711 185.264L129.616 184.197Z" fill="black"/>
<path d="M54.413 176.255L75.3289 177.492L76.9507 195.051C76.9507 195.051 58.6014 194.519 47.4705 191.037L54.9521 187.36L54.413 176.255Z" fill="#EEEEEE" stroke="black" stroke-width="1.39887" stroke-linejoin="round"/>
<rect width="51.2053" height="9.601" rx="2.00878" transform="matrix(0.258819 0.965926 0.965926 -0.258819 47.3636 48.2594)" fill="#EEEEEE" stroke="black" stroke-width="1.39887"/>
<rect width="51.2053" height="9.601" rx="2.00878" transform="matrix(-1 0 0 1 109.788 92.7126)" fill="#00ADB5" stroke="black" stroke-width="1.39887"/>
<path d="M16.1629 163.245L18.7499 184.604L3.13724 188.912C3.13724 188.912 0.195709 170.51 1.62112 158.755L6.77729 165.529L16.1629 163.245Z" fill="#EEEEEE" stroke="black" stroke-width="1.39887" stroke-linejoin="round"/>
<path d="M93.6948 108.003L105.411 88.4811L141.335 108.042C139.688 85.4665 155.183 52.9772 171.454 54.9562C200 58.4278 178.97 128.788 160.27 141.19C141.571 153.593 93.6948 108.003 93.6948 108.003Z" fill="#EEEEEE"/>
<path d="M182.82 98.1379C178.403 116.65 169.078 135.349 160.27 141.19C141.571 153.593 93.6949 108.003 93.6949 108.003L105.411 88.4811L141.335 108.042L153.545 77.4106" stroke="black" stroke-width="1.39887"/>
<path d="M103.278 87L105.522 88.6041L93.7178 108.02L90.1093 105.447C84.2744 101.288 83.7159 92.8255 88.9534 87.9355C92.8969 84.2536 98.8893 83.8623 103.278 87Z" fill="#F5B9AB" stroke="black" stroke-width="1.39887" stroke-linejoin="round"/>
</svg>
