<svg width="172" height="233" viewBox="0 0 172 233" fill="none" xmlns="http://www.w3.org/2000/svg">
<rect x="80.3309" y="170.008" width="29.9831" height="61.8852" rx="3.51536" fill="#00ADB5" stroke="black" stroke-width="1.64486" stroke-linejoin="round"/>
<rect x="1.89502" y="187.878" width="29.9831" height="44.0153" rx="3.51536" fill="#EEEEEE" stroke="black" stroke-width="1.64486" stroke-linejoin="round"/>
<rect x="141.017" y="101.406" width="29.9831" height="130.487" rx="3.51536" fill="#00ADB5" stroke="black" stroke-width="1.64486" stroke-linejoin="round"/>
<path d="M41.6568 85.5214L72.4843 85.5214C72.4843 85.5214 67.5712 130.421 60.8845 137.782C54.1978 145.144 19.2023 165.332 19.2023 165.332L7.41667 158.099L29.3874 123.497C29.3874 123.497 26.9713 110.004 41.6568 85.5214Z" fill="#00ADB5" stroke="black" stroke-width="1.39887"/>
<path d="M19.7006 164.927L7.41673 158.1L1.19977 164.794C1.19977 164.794 11.6802 170.869 18.9921 173.25L15.8953 169.165L19.7006 164.927Z" fill="#EEEEEE" stroke="black" stroke-width="1.39887" stroke-linejoin="round"/>
<path d="M41.7883 84.8672L75.4712 84.8229C75.4712 84.8229 94.1955 101.289 96.5545 110.95C98.9136 120.611 96.2233 155.671 96.2233 155.671L82.6098 161.69L68.5553 124.658C68.5553 124.658 53.861 110.738 41.7883 84.8672Z" fill="#00ADB5"/>
<path d="M41.7883 84.8672L41.7873 84.1678C41.5485 84.1681 41.3263 84.2903 41.1981 84.4919C41.0699 84.6935 41.0534 84.9465 41.1544 85.163L41.7883 84.8672ZM75.4712 84.8229L75.9331 84.2976L75.7346 84.1231L75.4703 84.1234L75.4712 84.8229ZM96.2233 155.671L96.5062 156.311L96.8887 156.142L96.9207 155.725L96.2233 155.671ZM82.6098 161.69L81.9559 161.938L82.2177 162.628L82.8926 162.33L82.6098 161.69ZM68.5553 124.658L69.2093 124.41L69.1525 124.26L69.0363 124.15L68.5553 124.658ZM41.7892 85.5667L75.4721 85.5223L75.4703 84.1234L41.7873 84.1678L41.7892 85.5667ZM95.9405 155.031L82.327 161.05L82.8926 162.33L96.5062 156.311L95.9405 155.031ZM83.2637 161.442L69.2093 124.41L67.9014 124.906L81.9559 161.938L83.2637 161.442ZM68.5553 124.658C69.0363 124.15 69.0364 124.15 69.0364 124.15C69.0364 124.15 69.0363 124.15 69.0362 124.15C69.0359 124.15 69.0354 124.149 69.0347 124.149C69.0332 124.147 69.0309 124.145 69.0277 124.142C69.0213 124.136 69.0114 124.126 68.998 124.113C68.9712 124.088 68.9306 124.048 68.8767 123.996C68.7689 123.89 68.6081 123.731 68.3983 123.518C67.9786 123.093 67.3634 122.454 66.5864 121.606C65.0322 119.91 62.831 117.377 60.2527 114.037C55.0959 107.356 48.4331 97.4525 42.4221 84.5715L41.1544 85.163C47.2162 98.1529 53.937 108.144 59.1454 114.892C61.7498 118.265 63.9767 120.829 65.555 122.551C66.3442 123.413 66.9713 124.064 67.4025 124.501C67.618 124.719 67.7846 124.884 67.898 124.995C67.9547 125.051 67.9981 125.093 68.0277 125.121C68.0424 125.135 68.0538 125.146 68.0616 125.154C68.0655 125.157 68.0685 125.16 68.0706 125.162C68.0717 125.163 68.0725 125.164 68.0731 125.165C68.0734 125.165 68.0737 125.165 68.0739 125.165C68.0741 125.166 68.0743 125.166 68.5553 124.658ZM75.4712 84.8229C75.0093 85.3481 75.0093 85.3481 75.0094 85.3482C75.0095 85.3483 75.0097 85.3484 75.0099 85.3487C75.0104 85.3491 75.0112 85.3498 75.0122 85.3507C75.0143 85.3526 75.0176 85.3554 75.0219 85.3592C75.0306 85.3669 75.0437 85.3785 75.0612 85.3939C75.096 85.4248 75.148 85.471 75.2162 85.5319C75.3525 85.6536 75.5534 85.8339 75.8101 86.0671C76.3237 86.5334 77.0609 87.2111 77.9532 88.0548C79.7383 89.7428 82.1418 92.0924 84.6172 94.741C87.0942 97.3913 89.634 100.331 91.6972 103.2C93.7711 106.084 95.3182 108.835 95.8751 111.116L97.234 110.784C96.6114 108.234 94.9333 105.304 92.8329 102.383C90.7217 99.4476 88.1381 96.4596 85.6392 93.7858C83.1387 91.1103 80.7136 88.7397 78.9142 87.0384C78.0143 86.1875 77.2702 85.5033 76.7505 85.0315C76.4907 84.7955 76.287 84.6126 76.1479 84.4884C76.0783 84.4263 76.0249 84.3789 75.9888 84.3469C75.9707 84.3308 75.9569 84.3187 75.9476 84.3104C75.9429 84.3063 75.9394 84.3032 75.9369 84.3011C75.9357 84.3 75.9348 84.2992 75.9341 84.2986C75.9338 84.2983 75.9335 84.2981 75.9334 84.2979C75.9332 84.2977 75.9331 84.2976 75.4712 84.8229ZM95.8751 111.116C96.4442 113.446 96.7191 117.377 96.7987 122.025C96.8779 126.652 96.7633 131.926 96.5747 136.907C96.3861 141.886 96.1239 146.564 95.9088 149.998C95.8012 151.715 95.7055 153.121 95.6366 154.097C95.6022 154.585 95.5745 154.965 95.5554 155.224C95.5459 155.353 95.5385 155.451 95.5335 155.518C95.531 155.551 95.5291 155.576 95.5279 155.593C95.5272 155.601 95.5267 155.607 95.5264 155.611C95.5263 155.614 95.5262 155.615 95.5261 155.616C95.526 155.617 95.526 155.617 95.526 155.617C95.526 155.618 95.526 155.618 96.2233 155.671C96.9207 155.725 96.9207 155.724 96.9208 155.724C96.9208 155.724 96.9208 155.723 96.9209 155.723C96.9209 155.722 96.9211 155.72 96.9212 155.718C96.9216 155.714 96.9221 155.707 96.9227 155.699C96.924 155.682 96.9259 155.656 96.9284 155.623C96.9335 155.556 96.9409 155.456 96.9505 155.327C96.9697 155.067 96.9975 154.685 97.032 154.195C97.1011 153.216 97.1971 151.807 97.3049 150.086C97.5205 146.644 97.7834 141.954 97.9725 136.96C98.1616 131.967 98.2772 126.665 98.1974 122.001C98.1179 117.358 97.8444 113.284 97.234 110.784L95.8751 111.116Z" fill="black"/>
<path fill-rule="evenodd" clip-rule="evenodd" d="M71.331 29.9348C72.0972 29.6553 72.8267 29.2468 73.4925 28.6796C78.5181 24.398 76.3631 17.9382 73.3217 14.5751C70.2802 11.212 51.6742 12.5535 60.4513 28.1334C60.4883 28.1556 60.526 28.1781 60.5644 28.2006C61.5456 31.3231 60.7181 34.0013 59.7251 37.2147C59.3201 38.5254 58.8876 39.9251 58.5391 41.4803L67.848 40.8133C70.4066 37.3389 71.3767 33.8368 71.331 29.9348Z" fill="#F5B9AB"/>
<path d="M73.4925 28.6796L72.9591 28.0536L72.9591 28.0536L73.4925 28.6796ZM71.331 29.9348L71.0491 29.1622C70.7212 29.2818 70.5045 29.5954 70.5086 29.9445L71.331 29.9348ZM73.3217 14.5751L73.9317 14.0235L73.9317 14.0235L73.3217 14.5751ZM60.4513 28.1334L59.7348 28.537C59.8045 28.6609 59.9052 28.7645 60.027 28.8379L60.4513 28.1334ZM60.5644 28.2006L61.349 27.9541C61.2879 27.7596 61.1568 27.5948 60.981 27.4915L60.5644 28.2006ZM59.7251 37.2147L60.5109 37.4575L60.5109 37.4575L59.7251 37.2147ZM58.5391 41.4803L57.7366 41.3004C57.6797 41.5542 57.7462 41.8199 57.9159 42.017C58.0856 42.214 58.3385 42.3192 58.5979 42.3006L58.5391 41.4803ZM67.848 40.8133L67.9068 41.6336C68.1469 41.6164 68.3675 41.4948 68.5102 41.301L67.848 40.8133ZM72.9591 28.0536C72.3725 28.5534 71.7293 28.9141 71.0491 29.1622L71.6128 30.7075C72.465 30.3966 73.281 29.9402 74.0259 29.3057L72.9591 28.0536ZM72.7117 15.1268C74.1367 16.7025 75.3467 19.0029 75.615 21.3754C75.8791 23.7099 75.2377 26.1123 72.9591 28.0536L74.0259 29.3057C76.7729 26.9653 77.5669 23.997 77.2495 21.1905C76.9363 18.4219 75.5481 15.8108 73.9317 14.0235L72.7117 15.1268ZM61.1679 27.7297C59.0289 23.933 58.6419 21.1492 59.1303 19.1659C59.6133 17.2048 60.9966 15.8507 62.8064 14.994C64.6278 14.1318 66.8242 13.807 68.7514 13.9052C69.7115 13.9542 70.58 14.107 71.2809 14.3352C71.997 14.5682 72.4675 14.8567 72.7117 15.1268L73.9317 14.0235C73.4155 13.4528 72.6392 13.0475 71.79 12.7711C70.9255 12.4897 69.9099 12.3173 68.8352 12.2625C66.6926 12.1533 64.2158 12.507 62.1027 13.5073C59.9779 14.5131 58.1654 16.2054 57.5332 18.7725C56.9065 21.3175 57.4852 24.5438 59.7348 28.537L61.1679 27.7297ZM60.981 27.4915C60.9452 27.4705 60.91 27.4496 60.8757 27.4289L60.027 28.8379C60.0666 28.8617 60.1069 28.8857 60.1478 28.9097L60.981 27.4915ZM60.5109 37.4575C61.4932 34.2786 62.4183 31.3566 61.349 27.9541L59.7798 28.4472C60.673 31.2896 59.943 33.724 58.9394 36.9719L60.5109 37.4575ZM59.3417 41.6601C59.6821 40.1412 60.1051 38.7709 60.5109 37.4575L58.9394 36.9719C58.5352 38.2799 58.0932 39.709 57.7366 41.3004L59.3417 41.6601ZM67.7892 39.993L58.4804 40.66L58.5979 42.3006L67.9068 41.6336L67.7892 39.993ZM70.5086 29.9445C70.5524 33.6809 69.6308 37.0055 67.1858 40.3256L68.5102 41.301C71.1824 37.6724 72.201 33.9927 72.1534 29.9252L70.5086 29.9445Z" fill="black"/>
<path d="M58.7813 18.7252C57.3247 20.7518 58.8936 25.7571 60.0512 27.0091C50.4591 21.6867 56.5318 9.67827 59.4914 11.8681C59.9737 7.42839 65.068 5.86197 68.5408 9.61677C77.2477 2.58543 77.7057 14.5666 74.6326 16.3887C71.5594 18.2107 67.8309 16.4756 65.8958 17.4151C63.9608 18.3547 62.7668 24.0461 62.14 20.8873C61.5132 17.7285 60.6021 16.1919 58.7813 18.7252Z" fill="#00ADB5" stroke="black" stroke-width="1.64486"/>
<path d="M76.5956 85.5855C86.6354 78.9082 82.4457 55.8337 81.0172 49.2732C80.7602 48.0929 80.3798 46.9606 79.9181 45.8444C76.123 36.6701 66.7604 29.2809 57.7933 33.5425C38.6933 42.6198 41.5329 71.5749 41.7131 85.8025L76.5956 85.5855Z" fill="#EEEEEE" stroke="black" stroke-width="1.64486" stroke-linejoin="round"/>
<path d="M106.795 54.3629L98.7363 44.529L71.5846 63.5255L62.8089 45.8613L51.4456 63.5253C51.4456 63.5253 63.7559 82.6446 70.0094 82.0891C81.4055 81.0768 106.795 54.3629 106.795 54.3629Z" fill="#EEEEEE"/>
<path d="M63.4101 47.1502L71.5079 62.9832L98.736 44.5293L106.794 54.3632C106.794 54.3632 82.8603 80.9118 68.8738 82.1542C64.4718 82.5452 51.6471 63.3341 51.6471 63.3341" stroke="black" stroke-width="1.64486"/>
<path d="M101.415 42.7545L98.2236 44.803L106.236 54.9538L108.755 52.9123C111.437 50.7404 111.861 46.8114 109.706 44.1166C107.699 41.6066 104.12 41.0186 101.415 42.7545Z" fill="#F5B9AB" stroke="black" stroke-width="1.64486" stroke-linejoin="round"/>
<path d="M96.3886 154.394L82.61 161.577L84.98 170.554L103.378 159.225L97.9643 159.96L96.3886 154.394Z" fill="#EEEEEE" stroke="black" stroke-width="1.39887" stroke-linejoin="round"/>
</svg>
